<?xml version="1.0" standalone="no"?>
<!DOCTYPE svg PUBLIC "-//W3C//DTD SVG 20010904//EN"
 "http://www.w3.org/TR/2001/REC-SVG-20010904/DTD/svg10.dtd">
<svg version="1.0" xmlns="http://www.w3.org/2000/svg"
 width="214.000000pt" height="229.000000pt" viewBox="0 0 214.000000 229.000000"
 preserveAspectRatio="xMidYMid meet">

<g transform="translate(0.000000,229.000000) scale(0.100000,-0.100000)"
fill="#000000" stroke="none">
<path d="M0 1145 l0 -1145 1070 0 1070 0 0 1145 0 1145 -1070 0 -1070 0 0
-1145z m714 -591 c3 -9 6 -43 6 -76 0 -59 1 -60 18 -45 38 35 112 6 112 -43 0
-21 -27 -54 -51 -62 -22 -7 18 -61 41 -55 29 7 32 -21 5 -39 -35 -23 -62 -9
-90 47 -14 27 -28 49 -32 49 -3 0 -3 -22 0 -50 l6 -50 -39 0 c-44 0 -57 12
-35 30 22 18 22 245 0 254 -22 8 -18 31 8 44 31 15 44 14 51 -4z m570 -5 c33
-26 33 -54 1 -75 -29 -19 -45 -12 -38 16 3 11 2 27 -1 36 -10 27 -36 -3 -36
-42 0 -30 3 -34 25 -34 18 0 25 -5 25 -20 0 -15 -7 -20 -25 -20 -25 0 -25 0
-26 -97 -1 -119 -7 -140 -42 -167 -24 -18 -31 -19 -63 -7 -30 11 -39 10 -59
-3 -34 -22 -91 -20 -115 4 -24 24 -25 48 -4 78 14 20 14 24 0 38 -11 11 -16
34 -16 76 0 46 -4 64 -17 74 -17 13 -17 15 1 29 11 8 28 15 38 15 15 0 18 -9
18 -59 0 -74 13 -111 39 -111 31 0 44 36 38 107 l-5 63 34 0 34 0 0 -115 c0
-110 1 -115 21 -115 16 0 19 -4 14 -20 -9 -28 3 -44 21 -29 11 9 14 39 14 125
0 107 -1 114 -20 114 -25 0 -26 20 -1 27 13 3 20 17 24 46 4 28 14 49 32 64
32 28 55 29 89 2z m304 -132 c2 -133 4 -147 20 -145 27 5 20 -25 -11 -42 -27
-14 -29 -14 -48 9 -18 22 -20 37 -17 148 2 91 0 124 -9 128 -20 7 -15 31 10
43 49 24 52 18 55 -141z m120 -1 c2 -124 5 -147 17 -142 23 8 29 -13 9 -35
-22 -24 -50 -24 -64 0 -5 11 -10 76 -10 144 0 98 -3 127 -15 137 -8 7 -12 17
-9 22 8 12 46 28 59 24 6 -2 11 -63 13 -150z m-1118 14 c24 -24 25 -34 4 -54
-23 -24 -42 -19 -46 12 -2 19 -9 27 -23 27 -37 0 -29 -33 12 -52 56 -25 73
-43 73 -75 0 -53 -89 -87 -138 -52 -31 22 -28 77 5 82 17 3 22 -2 25 -25 3
-31 35 -44 49 -21 14 22 11 28 -26 44 -45 18 -75 48 -75 74 0 33 35 60 80 60
27 0 47 -7 60 -20z m847 14 l29 -6 -4 -85 c-4 -78 -3 -84 14 -81 28 5 28 -26
-1 -42 -22 -12 -27 -11 -44 4 -17 16 -20 16 -49 -1 -36 -20 -71 -9 -97 31 -17
26 -22 88 -10 125 14 46 85 70 162 55z"/>
<path d="M735 388 c-14 -21 -14 -23 2 -29 25 -9 53 8 53 31 0 28 -35 26 -55
-2z"/>
<path d="M1000 244 c-23 -7 -43 -64 -29 -81 27 -32 59 -1 59 56 0 17 -3 30 -7
30 -5 -1 -15 -3 -23 -5z"/>
<path d="M1351 401 c-36 -36 -22 -131 20 -131 26 0 49 42 49 90 0 28 -4 50 -9
50 -5 0 -16 3 -24 6 -9 3 -25 -4 -36 -15z"/>
</g>
</svg>
